<svg width="55" height="32" viewBox="0 0 55 32" fill="none" xmlns="http://www.w3.org/2000/svg">
<g clip-path="url(#clip0_149_851)">
<path d="M9.44671 17.9778C12.971 16.5811 16.7567 14.8295 19.5734 13.2923C26.454 9.53742 30.9061 6.64309 33.5845 4.18365C35.2556 2.64917 35.9318 1.53406 35.5943 0.8694C35.2458 0.183361 33.9028 0.0903403 31.4881 0.585353C26.9586 1.51391 19.642 5.38238 12.6913 13.455C11.4565 14.8891 10.2843 16.343 9.18791 17.772C6.36487 18.8816 4.22983 19.55 3.84769 19.4507C3.87561 19.3544 4.11669 18.9494 6.05593 17.7154C7.19018 16.9937 8.34431 16.3457 8.35584 16.3392L8.21519 16.0866C7.76274 16.3401 3.78869 18.5872 3.56887 19.3807C3.53988 19.4854 3.56467 19.5615 3.59058 19.6071C3.67642 19.7578 3.90076 19.8786 5.48552 19.4006C6.37286 19.1328 7.52822 18.7243 8.85326 18.2105C4.54271 23.8882 1.4624 29.0942 0.468994 30.9718L0.723749 31.1075C1.7359 29.1945 4.92162 23.8149 9.37096 18.0077C9.39611 17.9979 9.42141 17.9878 9.44671 17.9778ZM12.9096 13.6442C19.8129 5.62665 27.0628 1.78799 31.5459 0.868938C32.6273 0.64723 33.4052 0.565105 33.9644 0.565105C34.9228 0.565105 35.2386 0.806599 35.3373 1.00081C35.49 1.30161 35.4401 2.08735 33.3897 3.97017C30.7291 6.41332 26.295 9.29469 19.4356 13.038C16.2978 14.7504 12.6794 16.3763 9.71304 17.5637C10.7201 16.2635 11.7892 14.9455 12.9096 13.6442Z" fill="#1C1C1E"/>
<path d="M40.3995 22.0009C34.2452 25.1447 28.2924 29.1676 25.9987 30.7656C27.2817 29.2384 29.5076 26.3057 28.81 25.0851C27.9789 23.63 24.831 24.1679 23.3023 24.5298C25.5015 23.028 25.4142 22.8182 25.3703 22.7126C25.2589 22.4441 24.8903 22.341 24.1753 22.3791C23.1723 22.4321 21.4872 22.7723 19.1666 23.3902C16.9886 23.9703 14.9447 24.7673 13.3024 25.4079C11.9134 25.9497 10.6993 26.4232 9.81847 26.6058C10.5014 26.3325 11.1892 25.8219 11.6283 25.496L11.7545 25.4026C12.1059 25.1443 12.4589 24.8885 12.8117 24.6328C13.5477 24.0995 14.3087 23.5479 15.0426 22.9816C15.8903 22.3274 16.7919 21.6192 17.6422 20.8734C17.6599 20.8579 17.6939 20.8304 17.7391 20.7938C18.5831 20.1088 18.8385 19.7833 18.7154 19.5498C18.6952 19.5116 18.654 19.4611 18.5717 19.4367C18.2729 19.3484 17.4107 19.7023 15.4959 20.7313C15.2543 20.7745 13.2138 21.1972 10.4293 23.5639C9.9544 23.9676 9.47972 24.2755 9.06092 24.5473C8.39269 24.9809 7.90991 25.2942 7.85526 25.7264C7.82709 25.9495 7.91964 26.1776 8.13809 26.4231C8.17839 26.5387 8.25163 26.6432 8.35622 26.7326C9.09134 27.3607 10.8081 26.6914 13.4069 25.6777C15.1277 25.0065 17.0782 24.2458 19.2406 23.67C24.0701 22.384 24.9339 22.6276 25.0815 22.7894C24.8979 23.0511 23.6195 23.9802 22.4283 24.7685C22.3685 24.808 22.3467 24.8856 22.3771 24.9506C22.4074 25.0158 22.481 25.0487 22.5494 25.0278C22.5996 25.0126 27.5865 23.5257 28.5599 25.229C29.2405 26.4202 26.2118 30.148 24.9873 31.4839C24.9372 31.5386 24.9365 31.6225 24.9857 31.678C25.014 31.7101 25.0536 31.7266 25.0936 31.7266C25.123 31.7266 25.1526 31.7177 25.178 31.6992C25.2526 31.6451 32.7294 26.2439 40.5304 22.2589C48.3004 18.2895 54.3711 18.6261 54.4316 18.6293L54.45 18.3405C54.3887 18.3363 48.2454 17.9928 40.3995 22.0009ZM8.15591 25.9134C8.14013 25.8607 8.13537 25.8106 8.14141 25.7628C8.16549 25.5723 8.36078 25.3823 8.64965 25.1719C8.3994 25.4457 8.23468 25.6929 8.15591 25.9134ZM8.39627 26.2762C8.38951 26.2394 8.38823 26.2005 8.39223 26.1592C8.43525 25.7165 9.14891 24.6127 13.4457 22.1943C14.6724 21.5038 17.8633 19.7079 18.4402 19.7079C18.4408 19.7079 18.4415 19.7079 18.4422 19.708C18.399 19.8018 18.2212 20.0303 17.5577 20.5687C17.5086 20.6086 17.4717 20.6386 17.4524 20.6555C16.608 21.396 15.7107 22.1008 14.8667 22.7521C14.1363 23.3158 13.377 23.866 12.6428 24.3981C12.2894 24.6543 11.936 24.9104 11.5841 25.169L11.4568 25.2633C10.7546 25.7844 9.12105 26.9969 8.39627 26.2762Z" fill="#1C1C1E"/>
<path d="M21.5281 21.0628L21.5991 21.3434C21.666 21.3264 26.0828 20.2171 33.014 19.3642C31.5647 21.0733 30.5436 22.4022 30.5201 22.4329L30.7489 22.6092C30.7733 22.5773 31.8865 21.1285 33.4363 19.313C37.0335 18.8822 41.2782 18.5255 45.9269 18.4237L45.9206 18.1343C41.3961 18.2334 37.2528 18.5735 33.7146 18.9886C35.5693 16.8368 37.9599 14.2748 39.8699 12.9407L39.7052 12.7031C37.7022 14.1022 35.184 16.8276 33.291 19.0391C26.1596 19.8993 21.5962 21.0455 21.5281 21.0628Z" fill="#1C1C1E"/>
</g>
<defs>
<clipPath id="clip0_149_851">
<rect width="54.9189" height="32" fill="white"/>
</clipPath>
</defs>
</svg>
