<svg width="24" height="25" viewBox="0 0 24 25" fill="none" xmlns="http://www.w3.org/2000/svg">
<g clip-path="url(#clip0_111_149)">
<path d="M16 3.5C16.5523 3.5 17 3.94772 17 4.5V5.5H19C20.0544 5.5 20.9182 6.31588 20.9945 7.35074L21 7.5V19.5C21 20.5544 20.1841 21.4182 19.1493 21.4945L19 21.5H5C3.94564 21.5 3.08183 20.6841 3.00549 19.6493L3 19.5V7.5C3 6.44564 3.81588 5.58183 4.85074 5.50549L5 5.5H7V4.5C7 3.94772 7.44772 3.5 8 3.5C8.55228 3.5 9 3.94772 9 4.5V5.5H15V4.5C15 3.94772 15.4477 3.5 16 3.5ZM14.8241 9.87878L10.5815 14.1214L9.16727 12.7072C8.77675 12.3167 8.14358 12.3167 7.75306 12.7072C7.36253 13.0977 7.36253 13.7309 7.75306 14.1214L9.86731 16.2357C10.2617 16.6301 10.9012 16.6301 11.2957 16.2357L16.2383 11.293C16.6289 10.9025 16.6289 10.2693 16.2383 9.87878C15.8478 9.48826 15.2146 9.48826 14.8241 9.87878Z" fill="#8E8E93"/>
</g>
<defs>
<clipPath id="clip0_111_149">
<rect width="24" height="24" fill="white" transform="translate(0 0.5)"/>
</clipPath>
</defs>
</svg>
