<svg width="48" height="48" viewBox="0 0 48 48" fill="none" xmlns="http://www.w3.org/2000/svg">
<g clip-path="url(#clip0_111_98)">
<path fill-rule="evenodd" clip-rule="evenodd" d="M18 10.1083C17.8707 13.3929 18 34.0542 18 34.0542C18.3204 34.0542 18.6408 34.1056 18.9487 34.2082L30 37.892V13.946C29.6796 13.946 29.3592 13.8947 29.0514 13.7921L18 10.1083ZM17.0513 6.20814C17.6671 6.00288 18.3329 6.00288 18.9487 6.20814L30 9.89192L40.5778 6.36598C42.2614 5.8048 44 7.05792 44 8.83256V35.2794C44 36.5706 43.1738 37.717 41.9486 38.1254L30.9486 41.792C30.3328 41.9974 29.6672 41.9974 29.0514 41.792L18 38.1082L7.4222 41.6342C5.73862 42.1954 4 40.9424 4 39.1676V12.7209C4 11.4296 4.8263 10.2832 6.05132 9.87482L17.0513 6.20814Z" fill="#007AFF"/>
</g>
<defs>
<clipPath id="clip0_111_98">
<rect width="48" height="48" fill="white"/>
</clipPath>
</defs>
</svg>
