<svg width="32" height="32" viewBox="0 0 32 32" fill="none" xmlns="http://www.w3.org/2000/svg">
<g clip-path="url(#clip0_111_269)">
<path fill-rule="evenodd" clip-rule="evenodd" d="M22.0697 29.51C20.1485 29.4393 14.7076 28.6881 9.0098 22.9903C3.31195 17.2924 2.56075 11.8515 2.49006 9.93023C2.38232 7.00295 4.62472 4.15869 7.2162 3.04807C7.82428 2.78745 8.5608 2.83515 9.14304 3.25985C11.2748 4.81481 12.7476 7.1658 14.012 9.01555C14.5832 9.85113 14.4467 10.992 13.6708 11.6636L11.0693 13.5957C10.8114 13.7872 10.7257 14.1352 10.8804 14.4167C11.469 15.4881 12.5176 17.0825 13.7175 18.2825C14.9188 19.4837 16.5886 20.6 17.7336 21.2549C18.0306 21.4248 18.404 21.3264 18.5918 21.0404L20.2842 18.4625C20.9331 17.5988 22.1451 17.4101 23.026 18.0199C24.9027 19.3187 27.0918 20.7649 28.6947 22.8177C29.15 23.4009 29.2178 24.1636 28.9462 24.7975C27.8304 27.4009 25.0069 29.6181 22.0697 29.51Z" fill="#8E8E93"/>
</g>
<defs>
<clipPath id="clip0_111_269">
<rect width="32" height="32" fill="white"/>
</clipPath>
</defs>
</svg>
