<svg width="24" height="25" viewBox="0 0 24 25" fill="none" xmlns="http://www.w3.org/2000/svg">
<path fill-rule="evenodd" clip-rule="evenodd" d="M10.5857 2.60056C11.3257 1.86062 12.5011 1.82167 13.2869 2.48373L13.4141 2.60056L15.3136 4.50005H17.9999C19.0543 4.50005 19.9181 5.31593 19.9944 6.35079L19.9999 6.50005V9.18632L21.8994 11.0858C22.6394 11.8258 22.6783 13.0012 22.0162 13.7871L21.8994 13.9143L19.9999 15.8138V18.5001C19.9999 19.5544 19.184 20.4183 18.1492 20.4946L17.9999 20.5001H15.3136L13.4141 22.3995C12.6742 23.1395 11.4987 23.1784 10.7129 22.5163L10.5857 22.3995L8.68622 20.5001H5.99991C4.94554 20.5001 4.08174 19.6842 4.00539 18.6494L3.99991 18.5001V15.8137L2.10043 13.9143C1.36049 13.1743 1.32155 11.9988 1.9836 11.213L2.10044 11.0858L3.99991 9.18636V6.50005C3.99991 5.44569 4.81578 4.58188 5.85064 4.50553L5.99991 4.50005H8.68622L10.5857 2.60056ZM15.0794 9.48261L10.8348 13.7271L9.06704 11.9594C8.67652 11.5689 8.04336 11.5689 7.65283 11.9594C7.26231 12.3499 7.26231 12.9831 7.65283 13.3736L10.057 15.7778C10.4866 16.2073 11.1831 16.2073 11.6126 15.7778L16.4936 10.8968C16.8841 10.5063 16.8841 9.87314 16.4936 9.48261C16.103 9.09209 15.4699 9.09209 15.0794 9.48261Z" fill="#FF9500"/>
</svg>
