<svg width="24" height="25" viewBox="0 0 24 25" fill="none" xmlns="http://www.w3.org/2000/svg">
<g clip-path="url(#clip0_111_158)">
<path d="M13.2279 3.18814C12.5057 2.62641 11.4944 2.62641 10.7722 3.18814L2.38841 9.70884C1.63605 10.294 2.04989 11.5 3.00297 11.5H4.00005V19.5C4.00005 20.6046 4.89548 21.5 6.00005 21.5H10V15.5C10 14.3954 10.8954 13.5 12 13.5C13.1046 13.5 14 14.3954 14 15.5V21.5H18.0001C19.1046 21.5 20.0001 20.6046 20.0001 19.5V11.5H20.9971C21.9492 11.5 22.3648 10.2946 21.6117 9.70884L13.2279 3.18814Z" fill="#8E8E93"/>
</g>
<defs>
<clipPath id="clip0_111_158">
<rect width="24" height="24" fill="white" transform="translate(0 0.5)"/>
</clipPath>
</defs>
</svg>
