<svg width="24" height="25" viewBox="0 0 24 25" fill="none" xmlns="http://www.w3.org/2000/svg">
<g clip-path="url(#clip0_111_178)">
<path fill-rule="evenodd" clip-rule="evenodd" d="M11 2.5C8.23858 2.5 6 4.73858 6 7.5C6 10.2614 8.23858 12.5 11 12.5C13.7614 12.5 16 10.2614 16 7.5C16 4.73858 13.7614 2.5 11 2.5ZM11 13.5C8.60453 13.5 6.42467 14.1937 4.82227 15.1715C4.02143 15.6602 3.33788 16.2363 2.84397 16.8615C2.35805 17.4767 2 18.213 2 19C2 19.8449 2.41114 20.5111 3.00266 20.9859C3.56324 21.4359 4.30182 21.7336 5.08716 21.9416C6.66466 22.3593 8.77101 22.5 11 22.5C11.2305 22.5 11.4591 22.4985 11.6854 22.4953C12.0257 22.4906 12.3403 22.3131 12.5203 22.0241C12.7002 21.7352 12.7209 21.3746 12.575 21.067C12.2066 20.29 12 19.4205 12 18.5C12 17.2478 12.3825 16.088 13.0369 15.1272C13.2349 14.8365 13.2656 14.4633 13.1179 14.1442C12.9702 13.825 12.6658 13.607 12.3161 13.5698C11.887 13.5242 11.4475 13.5 11 13.5ZM18.8642 14.4967C18.6851 14.1892 18.356 14 18.0001 14C17.6442 14 17.3151 14.1892 17.136 14.4967L16.2263 16.0586L14.4598 16.4411C14.1119 16.5164 13.8303 16.7709 13.7203 17.1094C13.6104 17.4479 13.6886 17.8193 13.9257 18.0847L15.13 19.4325L14.9479 21.2308C14.9121 21.5849 15.0671 21.9314 15.3551 22.1406C15.643 22.3498 16.0204 22.3902 16.3461 22.2466L18.0001 21.5178L19.6541 22.2466C19.9798 22.3902 20.3572 22.3498 20.6451 22.1406C20.9331 21.9314 21.0881 21.5849 21.0523 21.2308L20.8702 19.4325L22.0745 18.0847C22.3116 17.8193 22.3898 17.4479 22.2799 17.1094C22.1699 16.7709 21.8883 16.5164 21.5404 16.4411L19.7739 16.0586L18.8642 14.4967Z" fill="#8E8E93"/>
</g>
<defs>
<clipPath id="clip0_111_178">
<rect width="24" height="24" fill="white" transform="translate(0 0.5)"/>
</clipPath>
</defs>
</svg>
