<svg width="24" height="25" viewBox="0 0 24 25" fill="none" xmlns="http://www.w3.org/2000/svg">
<g clip-path="url(#clip0_111_133)">
<path fill-rule="evenodd" clip-rule="evenodd" d="M5 4.5C5 3.39543 5.89543 2.5 7 2.5H17C18.1046 2.5 19 3.39543 19 4.5V6.35926C19 8.03103 18.1645 9.59219 16.7735 10.5195L13.8028 12.5L16.7735 14.4805C18.1645 15.4078 19 16.969 19 18.6407V20.5C19 21.6046 18.1046 22.5 17 22.5H7C5.89543 22.5 5 21.6046 5 20.5V18.6407C5 16.969 5.83551 15.4078 7.2265 14.4805L10.1972 12.5L7.2265 10.5195C5.83551 9.59219 5 8.03103 5 6.35926V4.5Z" fill="#007AFF"/>
</g>
<defs>
<clipPath id="clip0_111_133">
<rect width="24" height="24" fill="white" transform="translate(0 0.5)"/>
</clipPath>
</defs>
</svg>
