<svg width="24" height="25" viewBox="0 0 24 25" fill="none" xmlns="http://www.w3.org/2000/svg">
<g clip-path="url(#clip0_111_210)">
<path fill-rule="evenodd" clip-rule="evenodd" d="M18.1653 3.26522L18.4204 3.29712C19.0944 3.39032 19.9858 3.51518 20.4914 4.02074C20.905 4.43438 21.0638 5.10628 21.1589 5.7061L21.215 6.09168C21.3408 7.00179 21.3737 8.19437 21.159 9.5182C20.7351 12.1313 19.3441 15.249 15.8506 17.6629C15.8321 17.8512 15.8306 18.0407 15.8349 18.2305L15.8442 18.5155C15.8607 18.9523 15.8771 19.3885 15.7548 19.8132C15.5646 20.4736 14.8885 20.9082 14.2558 21.2204L13.9456 21.3668L13.5456 21.5433C12.7974 21.8608 11.7873 22.1867 11.154 21.5535C10.7747 21.1742 10.6179 20.6181 10.4908 20.0647L10.4442 19.8577C10.3837 19.5864 10.3245 19.3212 10.2436 19.0837C10.1939 18.9379 10.1403 18.7893 10.0822 18.6391C10.0189 18.7166 9.95104 18.7917 9.87877 18.8639C9.53364 19.2091 9.01887 19.45 8.59472 19.6185C8.1317 19.8023 7.60807 19.9625 7.12313 20.0941L6.87445 20.16L6.39746 20.2786L5.96544 20.3782L5.44843 20.4883L5.12525 20.5517C4.83688 20.6054 4.48851 20.5354 4.22659 20.2735C3.96467 20.0115 3.89463 19.6632 3.94836 19.3748L4.0339 18.9439L4.18768 18.2459L4.31156 17.7368L4.406 17.3769C4.53754 16.892 4.69775 16.3684 4.88161 15.9053C5.05003 15.4812 5.291 14.9664 5.63613 14.6213L5.7165 14.5438L5.65199 14.5185C5.49005 14.4552 5.31495 14.3973 5.13312 14.3405L4.85614 14.2557C4.16241 14.0451 3.42035 13.8198 2.95865 13.3581C2.39992 12.7994 2.58796 11.9472 2.85798 11.2404L2.96879 10.9665L3.14531 10.5665L3.29169 10.2563C3.6039 9.62365 4.03852 8.94748 4.6989 8.75729C5.04903 8.65645 5.41317 8.65076 5.779 8.6609L5.9986 8.66825C6.28457 8.67864 6.57006 8.68901 6.84917 8.66154C9.26314 5.16797 12.3808 3.777 14.9939 3.35315C16.1974 3.15794 17.2924 3.16734 18.1653 3.26522ZM8.35318 15.9393C8.03017 15.6991 7.59518 15.6789 7.25334 15.8787L7.14313 15.9534L7.05034 16.0355L6.92532 16.1941C6.66497 16.5697 6.5171 17.0898 6.40169 17.5758L6.29414 18.044C6.27703 18.1179 6.26008 18.1892 6.24292 18.2571L6.43407 18.211L6.85171 18.1154C7.43037 17.9805 8.07059 17.8046 8.46479 17.4495C8.8233 17.091 8.85249 16.5282 8.55273 16.1361L8.47094 16.0419L8.44742 16.0188L8.35318 15.9393ZM15.5357 8.96453C14.7546 8.18348 13.4883 8.18348 12.7072 8.96453C11.9262 9.74558 11.9262 11.0119 12.7072 11.793C13.4883 12.574 14.7546 12.574 15.5357 11.793C16.3167 11.0119 16.3167 9.74558 15.5357 8.96453Z" fill="#FF9500"/>
</g>
<defs>
<clipPath id="clip0_111_210">
<rect width="24" height="24" fill="white" transform="translate(0 0.5)"/>
</clipPath>
</defs>
</svg>
