<svg width="24" height="25" viewBox="0 0 24 25" fill="none" xmlns="http://www.w3.org/2000/svg">
<g clip-path="url(#clip0_111_166)">
<path d="M10.0771 3.11445C10.4148 2.3547 11.4561 2.31671 11.8641 3.00048L11.923 3.11445L12.965 5.45885C13.876 7.5085 15.3904 9.22789 17.3018 10.3902L17.624 10.5787L19.4748 11.6197C20.1232 11.9844 20.1592 12.8862 19.5829 13.3106L19.4748 13.3803L17.624 14.4214C15.6691 15.521 14.0998 17.1904 13.1224 19.2027L12.965 19.5412L11.923 21.8856C11.5854 22.6453 10.5442 22.6833 10.1361 21.9996L10.0771 21.8856L9.03519 19.5412C8.12424 17.4916 6.60981 15.7721 4.69836 14.6099L4.37614 14.4214L2.52533 13.3803C1.87703 13.0156 1.841 12.1138 2.41728 11.6894L2.52533 11.6197L4.37614 10.5787C6.33106 9.47901 7.90045 7.80961 8.87781 5.79736L9.03519 5.45885L10.0771 3.11445ZM19.2206 2.62106C19.7191 3.74286 20.5604 4.69019 21.6348 5.29454C21.795 5.38467 21.795 5.61536 21.6348 5.70549C20.5604 6.30984 19.7191 7.25718 19.2206 8.37897C19.1357 8.57 18.8645 8.57 18.7796 8.37897C18.2811 7.25717 17.4398 6.30984 16.3654 5.70549C16.2052 5.61536 16.2052 5.38467 16.3654 5.29454C17.4398 4.6902 18.2811 3.74286 18.7796 2.62106C18.8645 2.43003 19.1357 2.43003 19.2206 2.62106Z" fill="#8E8E93"/>
</g>
<defs>
<clipPath id="clip0_111_166">
<rect width="24" height="24" fill="white" transform="translate(0 0.5)"/>
</clipPath>
</defs>
</svg>
