<svg width="33" height="32" viewBox="0 0 33 32" fill="none" xmlns="http://www.w3.org/2000/svg">
<g clip-path="url(#clip0_134_790)">
<path d="M14.1523 5.9882L13.881 10.1806L13.8548 10.736L13.7351 10.7485C7.81746 11.444 3.3335 16.4895 3.3335 22.6667C3.3335 23.276 3.37902 23.88 3.46907 24.4754C3.84142 26.9363 4.12134 27.1743 5.83204 25.1396C6.25319 24.6387 6.72319 24.1919 7.2184 23.7663C8.99986 22.2966 11.2086 21.4382 13.5581 21.3423L13.8588 21.336L13.9408 22.9744L14.1622 26.1014C14.2679 27.1734 15.3958 27.9058 16.4339 27.3203C16.9023 27.0559 17.3602 26.7746 17.819 26.4942C20.2028 25.0026 22.4334 23.2888 24.6072 21.5095C25.8864 20.4435 27.0079 19.4326 27.962 18.5126C28.4011 18.0808 28.8407 17.6502 29.2663 17.205C29.8826 16.56 29.9435 15.4919 29.2984 14.8166C27.8139 13.2628 25.7151 11.3167 23.103 9.25403C20.986 7.59771 18.7962 6.05035 16.4763 4.69145C15.3606 4.05567 14.2538 4.92803 14.1523 5.9882Z" fill="#8E8E93"/>
</g>
<defs>
<clipPath id="clip0_134_790">
<rect width="32" height="32" fill="white" transform="translate(0.666748)"/>
</clipPath>
</defs>
</svg>
