<svg width="33" height="32" viewBox="0 0 33 32" fill="none" xmlns="http://www.w3.org/2000/svg">
<g clip-path="url(#clip0_111_295)">
<path fill-rule="evenodd" clip-rule="evenodd" d="M24.3334 2.66663C25.8062 2.66663 27.0001 3.86053 27.0001 5.33329V17.0702C25.8234 16.3896 24.4573 16 23.0001 16C18.5818 16 15.0001 19.5817 15.0001 24C15.0001 26.0489 15.7703 27.918 17.0371 29.3333H8.33341C6.86065 29.3333 5.66675 28.1394 5.66675 26.6666V5.33329C5.66675 3.86053 6.86065 2.66663 8.33341 2.66663H24.3334ZM23.0001 18.6666C25.9455 18.6666 28.3334 21.0545 28.3334 24C28.3334 26.9454 25.9455 29.3333 23.0001 29.3333C20.0546 29.3333 17.6667 26.9454 17.6667 24C17.6667 21.0545 20.0546 18.6666 23.0001 18.6666ZM23.0001 20.6666C22.3163 20.6666 21.7527 21.1813 21.6757 21.8445L21.6667 22V24C21.6667 24.6838 22.1814 25.2473 22.8446 25.3243L23.0001 25.3333H24.3334C25.0698 25.3333 25.6667 24.7364 25.6667 24C25.6667 23.3162 25.152 22.7526 24.4889 22.6756L24.3334 22.6666V22C24.3334 21.2636 23.7365 20.6666 23.0001 20.6666ZM12.3334 14.6666H11.0001C10.2637 14.6666 9.66675 15.2636 9.66675 16C9.66675 16.7364 10.2637 17.3333 11.0001 17.3333H12.3334C13.0698 17.3333 13.6667 16.7364 13.6667 16C13.6667 15.2636 13.0698 14.6666 12.3334 14.6666ZM19.0001 9.33329H11.0001C10.2637 9.33329 9.66675 9.93025 9.66675 10.6666C9.66675 11.3504 10.1815 11.914 10.8446 11.991L11.0001 12H19.0001C19.7365 12 20.3334 11.403 20.3334 10.6666C20.3334 9.98285 19.8187 9.41928 19.1556 9.34226L19.0001 9.33329Z" fill="#8E8E93"/>
</g>
<defs>
<clipPath id="clip0_111_295">
<rect width="32" height="32" fill="white" transform="translate(0.333496)"/>
</clipPath>
</defs>
</svg>
