<svg width="24" height="25" viewBox="0 0 24 25" fill="none" xmlns="http://www.w3.org/2000/svg">
<path d="M6.52739 15.0138C6.52739 16.0969 5.64264 16.9816 4.55959 16.9816C3.47654 16.9816 2.5918 16.0969 2.5918 15.0138C2.5918 13.9308 3.47654 13.046 4.55959 13.046H6.52739V15.0138ZM7.51892 15.0138C7.51892 13.9308 8.40366 13.046 9.48671 13.046C10.5698 13.046 11.4545 13.9308 11.4545 15.0138V19.9409C11.4545 21.024 10.5698 21.9087 9.48671 21.9087C8.40366 21.9087 7.51892 21.024 7.51892 19.9409V15.0138ZM9.48671 7.02739C8.40366 7.02739 7.51892 6.14264 7.51892 5.05959C7.51892 3.97654 8.40366 3.0918 9.48671 3.0918C10.5698 3.0918 11.4545 3.97654 11.4545 5.05959V7.02739H9.48671ZM9.48671 8.01892C10.5698 8.01892 11.4545 8.90366 11.4545 9.98671C11.4545 11.0698 10.5698 11.9545 9.48671 11.9545H4.55959C3.47654 11.9545 2.5918 11.0698 2.5918 9.98671C2.5918 8.90366 3.47654 8.01892 4.55959 8.01892H9.48671ZM17.4732 9.98671C17.4732 8.90366 18.3579 8.01892 19.4409 8.01892C20.524 8.01892 21.4087 8.90366 21.4087 9.98671C21.4087 11.0698 20.524 11.9545 19.4409 11.9545H17.4732V9.98671ZM16.4816 9.98671C16.4816 11.0698 15.5969 11.9545 14.5138 11.9545C13.4308 11.9545 12.546 11.0698 12.546 9.98671V5.05959C12.546 3.97654 13.4308 3.0918 14.5138 3.0918C15.5969 3.0918 16.4816 3.97654 16.4816 5.05959V9.98671ZM14.5138 17.9732C15.5969 17.9732 16.4816 18.8579 16.4816 19.9409C16.4816 21.024 15.5969 21.9087 14.5138 21.9087C13.4308 21.9087 12.546 21.024 12.546 19.9409V17.9732H14.5138ZM14.5138 16.9816C13.4308 16.9816 12.546 16.0969 12.546 15.0138C12.546 13.9308 13.4308 13.046 14.5138 13.046H19.4409C20.524 13.046 21.4087 13.9308 21.4087 15.0138C21.4087 16.0969 20.524 16.9816 19.4409 16.9816H14.5138Z" fill="#8E8E93"/>
</svg>
