<svg width="24" height="25" viewBox="0 0 24 25" fill="none" xmlns="http://www.w3.org/2000/svg">
<g clip-path="url(#clip0_111_125)">
<path d="M9.4984 6.29268C10.918 4.38864 13.0525 3.83321 15.0165 4.36777C17.1369 4.94493 19.0014 6.7662 19.6204 9.30223C19.6519 9.43163 19.6794 9.56143 19.7027 9.69163C18.8374 9.3849 17.8797 9.34036 16.9286 9.62255C15.642 8.66961 14.048 8.51043 12.6309 9.03255C10.856 9.68652 9.4698 11.348 9.1495 13.4375C8.73919 16.1142 10.3694 18.5175 12.6738 20.5618L13.0616 20.8981C12.7494 20.9201 12.4306 20.8705 12.1274 20.8064C11.9725 20.7737 11.8133 20.7341 11.661 20.6937L11.1239 20.5442C6.35085 19.2015 3.1542 17.0987 2.23729 13.96C1.50529 11.4543 2.20935 8.94477 3.75716 7.38469C5.19069 5.93979 7.31697 5.35353 9.4984 6.29268ZM11.1264 13.7406C11.5544 10.9486 14.783 9.57297 16.4407 11.9685C16.4727 12.0148 16.5388 12.0265 16.5848 11.9939C18.9618 10.3098 21.5252 12.7067 20.9725 15.4767C20.652 17.0827 19.1619 18.4161 16.5021 19.4767L16.0674 19.6469L15.8039 19.7551C15.5772 19.8436 15.3372 19.9152 15.1205 19.877C14.9038 19.8388 14.7028 19.6894 14.52 19.5287L14.2109 19.249C11.8969 17.2578 10.8687 15.4216 11.1264 13.7406Z" fill="#007AFF"/>
</g>
<defs>
<clipPath id="clip0_111_125">
<rect width="24" height="24" fill="white" transform="translate(0 0.5)"/>
</clipPath>
</defs>
</svg>
