<svg width="24" height="25" viewBox="0 0 24 25" fill="none" xmlns="http://www.w3.org/2000/svg">
<g clip-path="url(#clip0_111_141)">
<path d="M20 10C20.8284 10 21.5 10.6716 21.5 11.5C21.5 16.1944 17.6944 20 13 20H10.6181C11.1458 20.589 11.1266 21.4947 10.5607 22.0607C9.97487 22.6464 9.02513 22.6464 8.43934 22.0607L5.94473 19.566C5.67323 19.2973 5.50387 18.9255 5.5 18.5142V18.4858C5.5035 18.115 5.64153 17.7763 5.86767 17.5162L5.93934 17.4393L8.43934 14.9393C9.02513 14.3536 9.97487 14.3536 10.5607 14.9393C11.1266 15.5053 11.1458 16.4111 10.6181 17H13C16.0376 17 18.5 14.5376 18.5 11.5C18.5 10.6716 19.1716 10 20 10ZM15.5607 2.93934L18.0607 5.43934C18.6464 6.02513 18.6464 6.97487 18.0607 7.56066L15.5607 10.0607C14.9749 10.6464 14.0251 10.6464 13.4393 10.0607C12.8734 9.49469 12.8542 8.58898 13.3819 8.00002H11C7.96243 8.00002 5.5 10.4625 5.5 13.5C5.5 14.3285 4.82843 15 4 15C3.17157 15 2.5 14.3285 2.5 13.5C2.5 8.8056 6.30558 5.00002 11 5.00002H13.3819C12.8542 4.41107 12.8734 3.50532 13.4393 2.93934C14.0251 2.35355 14.9749 2.35355 15.5607 2.93934Z" fill="#8E8E93"/>
</g>
<defs>
<clipPath id="clip0_111_141">
<rect width="24" height="24" fill="white" transform="translate(0 0.5)"/>
</clipPath>
</defs>
</svg>
